<svg width="132" height="44" viewBox="0 0 132 44" fill="none" xmlns="http://www.w3.org/2000/svg">
<path d="M0.0852273 44L7.32955 0.363635H19.1761L16.2784 18.0057H16.875L32.8977 0.363635H46.7045L28.8068 19.7955L39.8011 44H25.6534L18.6648 27.6364L13.8068 32.8352L11.9318 44H0.0852273ZM87.9759 0.363635L80.7315 44H70.8452L58.9134 21.0739H58.6577L54.8224 44H42.9759L50.2202 0.363635H60.277L72.0384 23.2045H72.3793L76.1293 0.363635H87.9759ZM131.335 0.363635L124.091 44H114.205L102.273 21.0739H102.017L98.1818 44H86.3352L93.5795 0.363635H103.636L115.398 23.2045H115.739L119.489 0.363635H131.335Z" fill="#CC0100"/>
</svg>
